<svg viewBox="0 0 1279.96 1279.96" xmlns="http://www.w3.org/2000/svg" data-name="Layer 1" id="Layer_1"><path d="M548.68,939.73H990.12L884.86,1053.58H295.74l84.31-109V302.46l-76.61-82.7H550.83ZM342.61,796.31V543.65a324,324,0,0,0,0,252.66ZM640,347a324.15,324.15,0,0,0-43.77,2.95V898.27H868.48A321.93,321.93,0,0,0,963,670C963,491.59,818.36,347,640,347ZM342.61,467.4a360.27,360.27,0,0,0,0,405.16v51.12a390.49,390.49,0,0,1,0-507.4ZM1030.85,670a389.68,389.68,0,0,1-73.53,228.29H918a359.75,359.75,0,0,0-278-588,363.11,363.11,0,0,0-43.77,2.63V281.53A392.56,392.56,0,0,1,640,279.11,390.58,390.58,0,0,1,1030.85,670Z" fill="currentColor"></path></svg>