<svg viewBox="0 0 1279.96 1279.96" xmlns="http://www.w3.org/2000/svg" data-name="Layer 1" id="Layer_1"><path d="M695,238.68c-1.91,3.36-3.41,6-4.88,8.6-2.12,3.75-1.52,5.41,2.81,6,9.58,1.22,19.21,2.1,28.94,3.13a14.73,14.73,0,0,1,.94,2.54c2,11.26,10.54,14.63,20.62,13.69,8.54-.79,17-2.29,25.48-3.8,1-.18,2.12-2.24,2.44-3.6,1.21-5.22,1.85-10.58,3.21-15.75,1.27-4.81,4.64-8.36,9.63-8.87,9.45-1,19-1.88,28.45-1.66,15.17.35,30.32,1.57,45.47,2.56,21.63,1.4,43.25,2.92,64.87,4.4a13.14,13.14,0,0,0,1.37.17c11.95-.51,17.35,5.92,18.26,17.15a19.75,19.75,0,0,0,.58,2.53c6.67-1.05,10.39-5.29,13.17-10.61,2.3-4.4,5.72-6.77,10.75-6.44a5.28,5.28,0,0,1,3,.9c4.63,4.22,10.44,4.33,16.07,4.54,13.4.5,26.82.55,40.21,1a23.1,23.1,0,0,1,16.66,7.43c3.41,3.52,8.8,5.38,13.6,7.19,2.93,1.1,4.54,2,4.56,5.42,0,3.95,1,7.91.94,11.84-.16,5.33-.17,10.88-1.7,15.9-2.79,9.19-3.79,17.95-1.2,27.5a101.29,101.29,0,0,1,3,23.71c.87,35.4,1.43,70.81,1.93,106.22.12,8.71-.38,17.43-.68,26.14-.28,8.31-.64,16.62-1,24.93-.27,5.95-3.11,10.06-8.72,12.39-3.67,1.52-7.15,3.52-10.77,5.19-3.89,1.79-5,5.11-3.21,8.4,4.65,8.46,2.35,15.08-4.31,21a10.14,10.14,0,0,0-.9,1.05c-9,10.31-9.41,9.94-1.59,23.09a99.21,99.21,0,0,0,8.65,12.49c7,8.46,9.51,18.55,10.68,29,2.64,23.71-.17,47.33-1.43,71-.39,7.34-2.13,11.37-9.13,13.84-2.73,1-4.46,4.74-6.64,7.23l1,1.41h27c.13,1.79.31,3.1.32,4.41,0,12.35-.1,24.7.18,37,.15,6.72,1.44,13.43,1.42,20.14,0,7.5-1.32,15-1.42,22.52-.24,17,.06,34-.11,50.93-.26,25.76-1.07,51.52-1,77.29,0,19.82,1.23,39.64,1.5,59.47.21,15.34-.23,30.69-.34,46,0,7.55,0,15.1,0,24.09-3.92-1.47-7-2.34-9.89-3.74-16.74-8.28-34.64-12-53.08-13-8.17-.44-16.45.69-24.66,1.34-4.06.33-2.44,3.7-2.74,6-.36,2.9,1.32,3.6,3.63,3.27,4.52-.66,5.62,1.85,5.65,5.52-7.57,1.85-15,5.3-22.44,5.18-21.59-.36-43.16-2.15-64.74-3.34-6.34-.36-12.83.09-19-1.1-5.14-1-9.89-3.93-14.89-5.79-1.54-.58-3.91-1.27-4.92-.54-9.91,7.13-20.94,9-32.91,8.87-10.86-.07-21.72,1.9-32.59,2.05-9.17.13-18.36-1.6-27.53-1.57-13.21,0-26.42.78-39.62,1.54-7.8.45-15.91.4-23.27,2.62-9.3,2.81-18,7.54-26.89,11.74-10.3,4.89-14.38,4-20.87-5.51-1.23-1.8-2-3.66-5-2.59-8.24,3-16.25,1.43-24.2-1.6-6.17-2.34-12.43-4.14-19.28-3.14-4.71.69-7.79,3.29-10.55,6.66-1.73,2.12-3.24,4.43-5,6.48-5.12,5.82-8.27,6.38-13.63.69-7.65-8.11-15.11-16.53-18.81-27.48-.37-1.08-2.63-2.52-3.55-2.25a24.65,24.65,0,0,0-8.32,3.9c-2.77,2.22-4.77,2.55-8.44,1.55-7-1.89-14.45-2.56-21.76-3-6-.41-11.82-.08-17.28-3.56-2.2-1.41-5.6-1.42-8.41-1.29q-20,.95-39.87,2.36c-11.3.81-22.39,1.95-33.81-.74-7.23-1.69-15.2-.17-22.84-.15-3.64,0-7.72,1-10.83-.35-7.75-3.28-15.28-1.54-23-.71a72.68,72.68,0,0,1-12.41.59,374.17,374.17,0,0,0-63.4,1.74,114.5,114.5,0,0,1-56.06-8.16c-2.68-1.11-3.86-2.67-3.58-5.59,1-10.39,2.27-20.77,2.74-31.19.45-10.1.35-20.24,0-30.34-.67-17.19-1.83-34.36-2.66-51.54-.38-8-.34-16-.74-24a26.45,26.45,0,0,1,8.24-20.38c7.74-7.54,10.1-16.48,11-26.45,1.48-16.05,3.3-32.08,4.41-48.16a42.93,42.93,0,0,0-2-15.37,15.26,15.26,0,0,0-6.51-7.85c-8.35-4.84-11.91-12.18-12.48-21.25-.84-13.36-1.38-26.73-2-40.11s-1.16-27-1.76-41a10.09,10.09,0,0,1,2.23-.75c16.21-2.36,20.65-11.85,21.72-25.73a51.93,51.93,0,0,0-.1-12c-.5-3.15-1.6-6.76-3.69-9-10.54-11.26-13.39-24.51-11.45-39.3,1.17-9,3.39-18,3.16-26.89A169.58,169.58,0,0,0,223,513.11c-5.26-15-6.6-30.58-7.6-46.21a199.56,199.56,0,0,1,.06-24.82c.31-5,2.2-9.89,3-14.89,2.85-18.33,6.43-36.6,8-55,1.45-17.16,1.28-34.53.69-51.77-.31-8.79-3-17.51-4.79-26.22-2.74-13.16-1.16-25.84,3.88-38.15.43-1,2-2.4,2.89-2.32,14.65,1.35,29.13.27,43.78-1,15.42-1.35,31.08-.1,46.63.22,20.35.42,40.69,1,61,1.57,8.68.23,17.53,1.67,26,.43,7.64-1.11,14.85-.25,22.24.39,3.93.35,7.19,1.37,9.7,5.12,1.21,1.82,4.74,2.85,7.25,2.92,14,.42,28.12-.21,42.09.83,9.66.71,19.18,1.8,28.68-.48a50.63,50.63,0,0,0,9.83-3.67c7.77-3.71,15.61-7.35,23.08-11.6,4.49-2.56,8.17-6.47,12.54-9.28,1.94-1.25,4.66-1.62,7.06-1.77,5.66-.36,11.34-.28,17-.51,3.61-.14,7.23-.89,10.81-.68,9.19.55,18.35,1.76,27.54,2.14,5.51.23,11-.77,16.58-.92,9.95-.26,19.9-.53,29.84-.33C678.56,237.21,686.32,238.07,695,238.68ZM309.45,396.58l-1.22,1.62c3.47,5.1,6.53,10.55,10.52,15.2,4.76,5.56,10.39,10.36,15.53,15.6,21.74,22.17,43.57,44.24,65.08,66.62C411.42,508.16,424.14,520,434.82,534c8.44,11,19.08,20.44,29,30.28,25.12,24.87,50.8,49.14,74.1,75.81,15.7,18,32.17,35.24,48.73,52.42,7,7.27,15.63,13,22.63,20.29,14.75,15.38,28.67,31.56,43.42,47a327.26,327.26,0,0,0,27,25c6.76,5.63,13.92,10.53,17.25,19.2a20.38,20.38,0,0,0,4.21,6c14.4,15.75,28.76,31.54,43.37,47.09,7.8,8.31,16.29,16,24.06,24.29,11,11.8,21.54,24,32.43,35.93A30.66,30.66,0,0,0,818.43,927c5.28,1,10.53,2.25,15.86,2.7,22,1.87,44,3.53,66,5.17,9.65.71,17.2-2.86,21.51-11.81,7.17-14.92,15.18-29.55,20.94-45,6.14-16.51,10.23-33.8,14.93-50.82,3.51-12.7,7.16-25.42,9.64-38.34,1.54-8,5.32-16.27-6.75-22.28-12.57-6.26-23.15-16.52-34.63-25-8.26-6.09-16.54-12.15-24.91-18.07a11.5,11.5,0,0,0-5.47-2.07,31.46,31.46,0,0,1-18.68-8c-6.39-5.51-12.45-11.45-19.21-16.46-5.38-4-11.84-6.5-17.39-10.28-19.64-13.37-39.05-27.07-58.63-40.52-14.53-10-29.09-19.93-43.81-29.62-17.41-11.44-35.1-22.46-52.49-33.93-13.06-8.61-25.82-17.68-38.77-26.48q-32.34-22-64.76-43.88c-11.94-8.08-23.65-16.57-36-24.09-9.73-5.95-18.23-14.05-29.74-17.08-6.58-1.74-12.63-4.71-16.54-10.87a8.21,8.21,0,0,0-3.67-2.66c-4.07-1.8-8.24-3.38-12.36-5.07-10.27-4.2-18.57-10.2-20.58-22.15a5.32,5.32,0,0,0-2.45-3c-14.84-9.27-29.8-18.35-44.6-27.68-7.5-4.73-15.31-9.21-22-14.95-10.51-9-21.76-11.08-34.44-6.36A160.41,160.41,0,0,0,344.68,385C333.48,390.49,322,395.1,309.45,396.58Zm65.9,344.84a22.77,22.77,0,0,0-2.31,3.29Q360.35,774.35,347.75,804c-6.63,15.68-13,31.49-19.8,47.09-3.59,8.24-7.07,16.34-6.38,25.64.55,7.42-.89,13,9.73,17.68,3.94,1.73,7.19,5.09,10.67,7.81,2.89,2.26,5.57,4.79,8.51,7,3.64,2.75,7.67,5,11.14,8,8,6.76,15.45,14.15,23.7,20.55,3.11,2.41,7.73,3.62,11.77,3.93,8.29.65,16.66.18,25,.44,13.44.43,26.49-1,38.55-7.43a84.92,84.92,0,0,1,30.07-9.54c8.29-1,16.31-2.86,23.64-7.18a53.9,53.9,0,0,1,9.18-4.08c7.19-2.57,14.46-4.94,22.21-7.56-.88-1.89-1.25-3.45-2.17-4.52a119,119,0,0,0-9.66-10.52c-18.18-16.53-36.68-32.7-54.69-49.42-13.63-12.65-26.71-25.91-40-38.93-14.05-13.77-28-27.66-42.1-41.35C390.19,754.88,383,748.46,375.35,741.42ZM719.64,416.57c2.37,3.16,3.76,6.05,6,7.84,11.5,9.1,23.2,17.94,34.87,26.83Q781.2,467,801.92,482.65c10.27,7.78,20.51,15.59,30.87,23.23,12.19,9,25.74,16,36.92,26.56,3.06,2.88,8.62,3.63,13.17,4.23,4.2.55,7.44-2.08,8-6.53.84-6.06,1.15-12.2,1.88-18.29,1.08-9.13,1.16-18.58,3.73-27.29,6.39-21.66,11.69-43.31,10.21-66.15-.18-2.8-.82-4.48-3.55-5.65a49.52,49.52,0,0,1-9.66-5.3,250.45,250.45,0,0,0-42.43-24.78c-1.57-.72-3.67-1.38-5.19-.94-10.26,3-20.34,6.63-30.64,9.45-20.43,5.59-41,10.77-61.46,16.17C742.86,410.25,731.93,413.26,719.64,416.57Z"></path></svg>