<svg width="1281" height="1281" viewBox="0 0 1281 1281" fill="none" xmlns="http://www.w3.org/2000/svg">
<path fill-rule="evenodd" clip-rule="evenodd" d="M1062.98 659.3C1064.78 662.6 1080.58 708.4 1087.48 728.7C1089.28 733.8 1086.18 739.3 1080.78 740.1L1042.48 748.8C1039.28 749.5 1036.08 747.9 1034.78 744.9L1003.78 673.3C1001.68 668.4 996.183 666 991.183 667.6L973.683 673.3C961.883 677.1 955.783 690.3 960.583 701.8L970.183 725L1034.68 768.9L1069.48 760.5V795.9C1069.48 800.2 1066.98 804.1 1062.98 805.8C1040.88 815.2 967.483 844.8 919.883 844.8C898.283 844.8 874.083 841.1 850.983 830.3C813.383 812.7 780.683 783.4 782.283 774.6C784.883 760.4 805.583 671.4 805.583 671.4C805.583 671.4 813.783 689 819.083 692.2C824.383 695.4 847.883 707.3 859.683 711.3C871.583 715.3 897.283 708.9 900.683 681C901.723 672.5 903.174 660.838 904.719 648.421C908.227 620.231 912.22 588.145 912.983 580.3C914.183 569 906.183 550.8 886.283 540C866.283 529.2 844.983 521.4 840.583 520.9C836.183 520.4 811.583 536.3 811.583 536.3C811.583 536.3 835.983 534.9 838.783 535.7C841.483 536.6 868.483 548.3 879.883 555.5C892.383 563.5 898.983 585.8 893.983 607.5C888.983 629.2 875.183 639.4 860.483 636.3C849.386 633.96 831.906 624.439 823.359 619.783C820.584 618.272 818.751 617.273 818.383 617.2C816.983 616.9 797.683 616.6 797.683 616.6C797.683 616.6 753.483 797.8 742.183 842.5C730.883 887.2 693.283 907.7 652.183 908.9C634.992 909.408 608.522 904.888 575.885 899.315C505.812 887.35 407.311 870.53 311.183 888.2C262.883 897 237.383 934.1 251.283 968.8C242.883 961.3 238.983 940 246.083 903.7C248.57 890.965 251.681 875.277 254.818 859.459C255.844 854.287 256.873 849.101 257.883 844C220.983 817.1 189.983 778.4 194.283 743.4C195.983 729.3 202.983 715.7 215.283 703.5C217.583 689.1 221.083 667.7 224.283 650.8C193.483 552.3 290.483 505.7 422.283 505.7C558.583 505.7 710.483 575 710.483 575C646.383 526.7 469.883 459.1 336.783 495C336.783 495 384.683 463.9 456.883 453.2C456.883 453.2 429.983 448.5 398.283 452.9C426.483 414 522.983 313 690.783 313C858.583 313 1004.98 416.6 1048.28 646.6C1048.28 646.6 1060.68 655.1 1062.98 659.3ZM615.683 580.9C614.883 573.7 609.483 567.9 603.683 567.9C597.783 567.9 593.783 573.8 594.583 581C595.383 588.2 600.783 594 606.583 594C612.483 594 616.483 588.1 615.683 580.9ZM599.483 668.6C598.683 661.4 593.283 655.6 587.483 655.6C581.583 655.7 577.583 661.5 578.383 668.7C579.183 675.9 584.583 681.7 590.383 681.7C596.283 681.7 600.283 675.8 599.483 668.6ZM521.983 554.2C522.883 549.3 519.483 544.7 514.583 544.1C381.883 527.8 219.283 535.3 227.083 637.9C233.383 612.3 246.583 590.3 270.883 582.3C262.883 586.2 244.183 600.5 239.983 625.9C237.083 643.4 233.283 677.1 231.883 690.2C276.983 660.2 363.083 643.5 494.383 658C498.883 658.4 502.983 655.4 503.783 651L521.983 554.2ZM269.483 788.9C273.783 770.7 302.183 723.3 455.683 723.3C568.57 723.3 668.999 747.461 674.726 748.838C674.894 748.879 674.98 748.9 674.983 748.9C565.183 698.3 479.983 682.8 402.583 682.8C325.183 682.8 208.883 708.1 208.883 766.7C208.883 795.6 233.683 821 258.883 839.3C263.283 817.5 267.283 797.9 269.483 788.9ZM879.683 580.4C876.483 566 864.083 556.3 852.083 558.7C839.983 561.2 832.883 574.8 836.083 589.2C839.283 603.6 851.583 613.3 863.683 610.9C875.783 608.5 882.883 594.8 879.683 580.4ZM870.94 580.814C872.734 587.423 869.91 593.942 864.633 595.374C859.356 596.806 853.624 592.609 851.831 586C850.037 579.39 852.861 572.872 858.138 571.439C863.415 570.007 869.146 574.205 870.94 580.814Z" fill="#1C1B1C"/>
</svg>
